<?xml version="1.0" encoding="UTF-8"?>
<svg version="1.1" xmlns="http://www.w3.org/2000/svg" width="500" height="500">
<path d="M0 0 C4.52114972 0.40379618 9.04178125 0.81284666 13.56201172 1.22680664 C15.10029158 1.36693072 16.63870379 1.50560974 18.17724609 1.64282227 C20.38675617 1.84012539 22.59574056 2.04259467 24.8046875 2.24609375 C25.49432587 2.3065538 26.18396423 2.36701385 26.89450073 2.42930603 C31.77225659 2.88612829 31.77225659 2.88612829 34 4 C34.96936124 23.87723152 33.26654007 41.04902194 27.9921875 60.35253906 C27.01581821 63.9418494 26.09315896 67.54069737 25.1875 71.1484375 C22.18184924 83.07332974 18.94569072 94.92402962 15.51953125 106.734375 C13.86635374 112.43617241 12.27817906 118.15551659 10.6875 123.875 C4.70456911 145.32041987 -1.539691 166.69364758 -8 188 C-20.08371462 187.49595921 -32.00854417 186.5814596 -44 185 C-46.75939397 173.18038389 -49.4886866 161.35506667 -52.109375 149.50390625 C-52.28710449 148.70058868 -52.46483398 147.89727112 -52.64794922 147.0696106 C-53.52974197 143.08066974 -54.40831283 139.09104618 -55.28320312 135.10058594 C-55.61062931 133.61522384 -55.9381012 132.12987182 -56.265625 130.64453125 C-56.41126892 129.9756337 -56.55691284 129.30673615 -56.70697021 128.61756897 C-57.64915312 124.35541401 -58.76561644 120.18412764 -60 116 C-60.31114746 117.01384766 -60.62229492 118.02769531 -60.94287109 119.07226562 C-66.28150424 136.46350411 -71.62281615 153.85402001 -77.03619385 171.22216797 C-77.46968184 172.61342433 -77.90258587 174.00486278 -78.3348999 175.39648438 C-78.93376902 177.32345741 -79.5351758 179.24964123 -80.13671875 181.17578125 C-80.47405029 182.25770752 -80.81138184 183.33963379 -81.15893555 184.4543457 C-82 187 -82 187 -83 189 C-96.11190414 188.44812014 -109.00971832 186.81501964 -122 185 C-123.09096428 180.20410086 -124.17494053 175.40668759 -125.25317383 170.60791016 C-125.61888969 168.98445739 -125.98633133 167.36139217 -126.35571289 165.73876953 C-128.4341814 156.60258191 -130.32956005 147.48340038 -131.79858398 138.22872925 C-132.67052009 132.79936065 -133.68549844 127.40849857 -134.75219727 122.01412964 C-137.60195371 107.60192782 -139.95467489 93.14315675 -142.11254883 78.61230469 C-142.6893512 74.73756433 -143.27876724 70.86488068 -143.86914062 66.9921875 C-149.20619636 31.58513165 -149.20619636 31.58513165 -149 14 C-135.30771721 14.70693851 -121.65849728 15.81507922 -108 17 C-106.53035891 21.02190451 -105.69084833 24.6064913 -105.39331055 28.8737793 C-105.26731728 30.58905067 -105.26731728 30.58905067 -105.13877869 32.338974 C-105.05559891 33.57160477 -104.97241913 34.80423553 -104.88671875 36.07421875 C-104.74167835 38.06181767 -104.59662071 40.04941543 -104.45080662 42.03695774 C-104.29726437 44.14324645 -104.14699192 46.24974794 -103.99743652 48.35632324 C-103.48049491 55.61314174 -102.93155168 62.86751741 -102.37109375 70.12109375 C-102.31530781 70.84351887 -102.25952187 71.56594398 -102.20204544 72.31026077 C-101.16409717 85.65633341 -99.84005576 98.957618 -98.25 112.25 C-98.14336029 113.14850677 -98.03672058 114.04701355 -97.92684937 114.9727478 C-97.62848998 117.46690497 -97.32433733 119.96022967 -97.015625 122.453125 C-96.92728897 123.16988907 -96.83895294 123.88665314 -96.74794006 124.62513733 C-96.34018821 127.8085909 -95.88244065 130.91047066 -95 134 C-93.14981015 126.05448092 -91.31770428 118.10483783 -89.49401855 110.15319824 C-89.16107186 108.70203768 -88.82781336 107.25094862 -88.4942627 105.79992676 C-83.30394638 83.21782055 -78.39803203 60.59435767 -73.83081055 37.87744141 C-73.64802048 36.9705809 -73.46523041 36.0637204 -73.27690125 35.12937927 C-72.93462861 33.428959 -72.59412402 31.72818153 -72.25569153 30.0269928 C-71.63677606 26.94855264 -70.9941074 23.9823222 -70 21 C-63.10961597 20.72681297 -56.42023038 21.20486708 -49.5859375 22.0078125 C-48.34299927 22.15005249 -48.34299927 22.15005249 -47.07495117 22.29516602 C-45.04964774 22.52733851 -43.02477722 22.76328227 -41 23 C-40.93815521 23.61052719 -40.87631042 24.22105438 -40.81259155 24.8500824 C-36.86370485 63.84322017 -36.86370485 63.84322017 -31.6875 102.6875 C-31.55889587 103.54753632 -31.43029175 104.40757263 -31.29779053 105.29367065 C-29.83528581 115.1791989 -29.83528581 115.1791989 -28 125 C-16.74587156 87.19235192 -9.51120788 47.74410264 -2.35693359 8.97924805 C-2.18629395 8.06054932 -2.0156543 7.14185059 -1.83984375 6.1953125 C-1.69925537 5.42203613 -1.55866699 4.64875977 -1.41381836 3.85205078 C-1 2 -1 2 0 0 Z " fill="#2095F3" transform="translate(456,194)"/>
<path d="M0 0 C17.41788512 0.56312003 34.67388063 2.21031339 52 4 C53.34559629 17.67068568 54.31519101 31.34791587 55.0625 45.0625 C55.12253204 46.13665665 55.12253204 46.13665665 55.18377686 47.23251343 C55.49348549 52.82011356 55.75782838 58.40908196 56 64 C56.0438382 65.00214539 56.08767639 66.00429077 56.13284302 67.0368042 C57.06078202 89.04635093 57.25092605 111.05284005 57.29516602 133.07958984 C57.30408462 137.04100635 57.32515341 141.00207885 57.35668945 144.96337891 C57.68663422 187.38281638 57.68663422 187.38281638 53 205 C52.60686667 206.57717291 52.21428871 208.15448436 51.82226562 209.73193359 C46.83339565 229.61012682 35.69266533 250.22807308 18 261.375 C9.19667217 266.6019759 0.85892662 267.52659943 -9.25 267.4375 C-10.45277588 267.42920166 -11.65555176 267.42090332 -12.89477539 267.41235352 C-31.12839889 267.06425594 -45.21788671 260.11614064 -58 247 C-69.88490663 234.17681127 -76.27108391 216.37250006 -77 199 C-77.0515625 198.07703125 -77.103125 197.1540625 -77.15625 196.203125 C-77.44358219 186.57749676 -75.77558881 177.4169621 -74 168 C-64.21435496 168.49913357 -54.45072189 169.16741134 -44.6875 170 C-43.19367798 170.1244751 -43.19367798 170.1244751 -41.66967773 170.25146484 C-40.73067627 170.33348145 -39.7916748 170.41549805 -38.82421875 170.5 C-37.98979248 170.5721875 -37.15536621 170.644375 -36.2956543 170.71875 C-34.12693574 170.98444858 -32.10396 171.41934696 -30 172 C-30.02356567 173.08716309 -30.02356567 173.08716309 -30.04760742 174.19628906 C-30.11078143 177.54744349 -30.14924886 180.89847197 -30.1875 184.25 C-30.21263672 185.38953125 -30.23777344 186.5290625 -30.26367188 187.703125 C-30.36053938 199.06891261 -28.98258034 210.29527914 -21 219 C-17.54152232 221.09523308 -15.0488532 221.48586238 -11 221 C-5.16831059 218.57012941 -2.97664061 214.32583371 -0.38671875 208.7109375 C3.48553743 198.34856182 5.15712174 187.53207337 5.62109375 176.51171875 C5.66055115 175.61539734 5.70000854 174.71907593 5.74066162 173.79559326 C6.18958054 162.11245967 5.97731274 150.43599989 5.75 138.75 C5.7279953 137.52398071 5.7059906 136.29796143 5.68331909 135.03479004 C5.30017443 114.25813452 4.52932296 93.50696282 3.5625 72.75 C3.53161789 72.08201889 3.50073578 71.41403778 3.46891785 70.72581482 C2.89894237 58.4225018 2.29756347 46.1220703 1.45654297 33.83398438 C1.38747506 32.82272429 1.38747506 32.82272429 1.31701183 31.7910347 C1.09610754 28.57882514 0.86838031 25.36727936 0.63172913 22.15618896 C0.10531074 14.75544728 -0.11003774 7.4190528 0 0 Z " fill="#2095F3" transform="translate(87,121)"/>
<path d="M0 0 C15.16577654 11.22631807 20.39818192 28.38119092 23.1640625 46.23828125 C23.96841629 52.22822259 24.32262757 58.11945233 24.33203125 64.16015625 C24.33824745 65.42224915 24.33824745 65.42224915 24.34458923 66.70983887 C24.35429103 69.46936383 24.35423153 72.22874172 24.3515625 74.98828125 C24.35165314 76.42439758 24.35165314 76.42439758 24.35174561 77.88952637 C24.33208684 100.03992284 23.3824378 122.12542179 22.1640625 144.23828125 C22.11832092 145.07897156 22.07257935 145.91966187 22.02545166 146.78582764 C21.7319681 152.16671011 21.4239045 157.54655299 21.1015625 162.92578125 C21.06154114 163.60684937 21.02151978 164.28791748 20.98028564 164.98962402 C20.86821095 166.86839085 20.74878076 168.74671471 20.62890625 170.625 C20.5630835 171.66873779 20.49726074 172.71247559 20.42944336 173.7878418 C20.1640625 176.23828125 20.1640625 176.23828125 19.1640625 178.23828125 C15.23101093 177.97678832 11.29834649 177.71013541 7.3659668 177.4387207 C5.37111606 177.30212021 3.37598765 177.16959453 1.38085938 177.03710938 C-0.49956055 176.9065918 -0.49956055 176.9065918 -2.41796875 176.7734375 C-3.57530518 176.69488525 -4.7326416 176.61633301 -5.92504883 176.53540039 C-8.8359375 176.23828125 -8.8359375 176.23828125 -11.8359375 175.23828125 C-12.78515625 172.953125 -12.78515625 172.953125 -13.5234375 170.17578125 C-13.77480469 169.25667969 -14.02617187 168.33757812 -14.28515625 167.390625 C-14.46691406 166.68035156 -14.64867187 165.97007812 -14.8359375 165.23828125 C-15.74214844 165.64820313 -16.64835937 166.058125 -17.58203125 166.48046875 C-18.81230874 167.02517176 -20.04278859 167.56941791 -21.2734375 168.11328125 C-22.46839844 168.64695312 -23.66335937 169.180625 -24.89453125 169.73046875 C-37.9070527 175.02207323 -53.94095359 175.26802193 -67.10546875 170.49609375 C-71.24361571 168.5898229 -74.53305033 166.36618102 -77.8359375 163.23828125 C-78.75826172 162.39330078 -78.75826172 162.39330078 -79.69921875 161.53125 C-88.15825634 152.92730384 -90.8796561 141.03578771 -91.2109375 129.30078125 C-91.02437313 113.42726248 -84.48687921 101.87458516 -73.52734375 90.93359375 C-62.39903213 81.28780594 -47.18356592 74.78391026 -32.7109375 72.55078125 C-31.93878906 72.42123047 -31.16664063 72.29167969 -30.37109375 72.15820312 C-26.14788096 71.47831623 -22.12891201 71.09426773 -17.8359375 71.23828125 C-17.95112931 68.25845101 -18.07784552 65.27982333 -18.2109375 62.30078125 C-18.241875 61.46998047 -18.2728125 60.63917969 -18.3046875 59.78320312 C-18.66872073 51.9868247 -19.43016409 44.84694136 -23.8359375 38.23828125 C-23.8359375 37.57828125 -23.8359375 36.91828125 -23.8359375 36.23828125 C-28.07259005 34.88255243 -32.42767085 34.12759508 -36.59765625 36.05078125 C-45.30243443 42.31039702 -48.71114973 55.44587202 -51.8359375 65.23828125 C-55.62780714 65.0974559 -59.41937729 64.94968778 -63.2109375 64.80078125 C-64.27183594 64.76146484 -65.33273438 64.72214844 -66.42578125 64.68164062 C-72.92800463 64.42234951 -79.37010842 63.97612089 -85.8359375 63.23828125 C-85.08155354 44.94086636 -76.18274842 26.35875706 -64.8359375 12.23828125 C-64.32417969 11.56796875 -63.81242187 10.89765625 -63.28515625 10.20703125 C-47.94527923 -8.83052495 -20.52974267 -12.75332499 0 0 Z M-49.3359375 119.61328125 C-52.37460183 123.42849313 -52.8359375 126.3889333 -52.8359375 131.23828125 C-52.12694331 135.13774929 -51.04398902 136.07449601 -47.8984375 138.55078125 C-40.63080575 142.22205914 -33.10002209 140.50862258 -25.6484375 138.23828125 C-23.70573082 137.58694304 -21.76617918 136.92568051 -19.8359375 136.23828125 C-18.99814314 126.52884309 -18.71317133 116.97773097 -18.8359375 107.23828125 C-30.94091904 106.91548174 -40.9483022 110.90763135 -49.3359375 119.61328125 Z " fill="#2095F3" transform="translate(261.8359375,207.76171875)"/>
</svg>
